<svg width="32" height="32" viewBox="0 0 32 32" xmlns="http://www.w3.org/2000/svg">
  <defs>
    <linearGradient id="brainGradient" x1="0%" y1="0%" x2="100%" y2="100%">
      <stop offset="0%" style="stop-color:#06d6a0;stop-opacity:1" />
      <stop offset="100%" style="stop-color:#6366f1;stop-opacity:1" />
    </linearGradient>
  </defs>
  
  <!-- Brain shape -->
  <path d="M16 4C12 4 8 6 8 12C8 14 9 16 11 17C9 18 8 20 10 22C11 23 13 23 14 22C15 24 17 24 18 22C19 23 21 23 22 22C24 20 23 18 21 17C23 16 24 14 24 12C24 6 20 4 16 4Z" 
        fill="url(#brainGradient)" 
        stroke="none"/>
  
  <!-- Brain details -->
  <path d="M12 10C12 9 13 8 14 8C15 8 16 9 16 10M18 10C18 9 19 8 20 8C21 8 22 9 22 10M14 14C14 13 15 12 16 12C17 12 18 13 18 14M12 18C12 17 13 16 14 16C15 16 16 17 16 18M18 18C18 17 19 16 20 16C21 16 22 17 22 18" 
        stroke="rgba(255,255,255,0.3)" 
        stroke-width="1" 
        fill="none"/>
  
  <!-- Sparkle effect -->
  <circle cx="8" cy="8" r="1" fill="#06d6a0" opacity="0.8">
    <animate attributeName="opacity" values="0.8;0.3;0.8" dur="2s" repeatCount="indefinite"/>
  </circle>
  <circle cx="26" cy="10" r="0.5" fill="#6366f1" opacity="0.6">
    <animate attributeName="opacity" values="0.6;0.2;0.6" dur="3s" repeatCount="indefinite"/>
  </circle>
  <circle cx="6" cy="26" r="0.8" fill="#8b5cf6" opacity="0.7">
    <animate attributeName="opacity" values="0.7;0.2;0.7" dur="2.5s" repeatCount="indefinite"/>
  </circle>
</svg>